{"accessors" : [{"bufferView" : 0, "byteOffset" : 0, "componentType" : 5123, "count" : 10074, "type" : "SCALAR", "max" : [8797], "min" : [0]}, {"bufferView" : 1, "byteOffset" : 0, "componentType" : 5126, "count" : 8798, "type" : "VEC3", "max" : [13.000320434570312, 13, 24], "min" : [-13, -13.000320434570312, -4], "name" : "POSITION"}, {"bufferView" : 1, "byteOffset" : 12, "componentType" : 5126, "count" : 8798, "type" : "VEC3", "max" : [1.0000044107437134, 1.0000044107437134, 1.0000044107437134], "min" : [-1.0000044107437134, -0.9997960925102234, -1.0000044107437134], "name" : "NORMAL"}, {"bufferView" : 0, "byteOffset" : 20148, "componentType" : 5123, "count" : 318, "type" : "SCALAR", "max" : [267], "min" : [0]}, {"bufferView" : 2, "byteOffset" : 0, "componentType" : 5126, "count" : 268, "type" : "VEC3", "max" : [4.72599983215332, 13, 16], "min" : [-4.72599983215332, 12.059300422668457, 8.75], "name" : "POSITION"}, {"bufferView" : 2, "byteOffset" : 12, "componentType" : 5126, "count" : 268, "type" : "VEC3", "max" : [0.1953490674495697, 1.0000044107437134, 2.0983973172405967E-06], "min" : [-0.1953490674495697, 0.9807383418083191, -0.00045310400309972465], "name" : "NORMAL"}, {"bufferView" : 0, "byteOffset" : 20784, "componentType" : 5123, "count" : 3792, "type" : "SCALAR", "max" : [3434], "min" : [0]}, {"bufferView" : 3, "byteOffset" : 0, "componentType" : 5126, "count" : 3435, "type" : "VEC3", "max" : [14.5, 17.121000289916992, 24.107999801635742], "min" : [-14.5, -14.5, -7.684000015258789], "name" : "POSITION"}, {"bufferView" : 3, "byteOffset" : 12, "componentType" : 5126, "count" : 3435, "type" : "VEC3", "max" : [1.0000044107437134, 1.0000044107437134, 1.0000044107437134], "min" : [-1.0000044107437134, -1.0000044107437134, -1.0000044107437134], "name" : "NORMAL"}, {"bufferView" : 0, "byteOffset" : 28368, "componentType" : 5123, "count" : 2052, "type" : "SCALAR", "max" : [2000], "min" : [0]}, {"bufferView" : 4, "byteOffset" : 0, "componentType" : 5126, "count" : 2001, "type" : "VEC3", "max" : [19, 10, 32], "min" : [-19, -10, -12], "name" : "POSITION"}, {"bufferView" : 4, "byteOffset" : 12, "componentType" : 5126, "count" : 2001, "type" : "VEC3", "max" : [1.0000044107437134, 1.0000044107437134, 1.0000044107437134], "min" : [-1.0000044107437134, -1.0000044107437134, -1.0000044107437134], "name" : "NORMAL"}, {"bufferView" : 0, "byteOffset" : 32472, "componentType" : 5123, "count" : 72, "type" : "SCALAR", "max" : [71], "min" : [0]}, {"bufferView" : 5, "byteOffset" : 0, "componentType" : 5126, "count" : 72, "type" : "VEC3", "max" : [4.243000030517578, 6.00045108795166, -4], "min" : [-4.243000030517578, 4.243000030517578, -12], "name" : "POSITION"}, {"bufferView" : 5, "byteOffset" : 12, "componentType" : 5126, "count" : 72, "type" : "VEC3", "max" : [0.6590816378593445, 0.9997696876525879, 0], "min" : [-0.6590816378593445, 0.7520773410797119, 0], "name" : "NORMAL"}, {"bufferView" : 0, "byteOffset" : 32616, "componentType" : 5123, "count" : 441, "type" : "SCALAR", "max" : [404], "min" : [0]}, {"bufferView" : 6, "byteOffset" : 0, "componentType" : 5126, "count" : 405, "type" : "VEC3", "max" : [11.77299976348877, 10, 17.98900032043457], "min" : [-12.168999671936035, 10, 6.0329999923706055], "name" : "POSITION"}, {"bufferView" : 6, "byteOffset" : 12, "componentType" : 5126, "count" : 405, "type" : "VEC3", "max" : [0, 1.0000044107437134, 0], "min" : [0, 1.0000044107437134, 0], "name" : "NORMAL"}, {"bufferView" : 0, "byteOffset" : 33500, "componentType" : 5123, "count" : 54, "type" : "SCALAR", "max" : [49], "min" : [0]}, {"bufferView" : 7, "byteOffset" : 0, "componentType" : 5126, "count" : 50, "type" : "VEC3", "max" : [2.4210000038146973, 10, 17.545000076293945], "min" : [-8.527999877929688, 10, 6.48799991607666], "name" : "POSITION"}, {"bufferView" : 7, "byteOffset" : 12, "componentType" : 5126, "count" : 50, "type" : "VEC3", "max" : [0, 1.0000044107437134, 0], "min" : [0, 1.0000044107437134, 0], "name" : "NORMAL"}, {"bufferView" : 0, "byteOffset" : 33608, "componentType" : 5123, "count" : 129, "type" : "SCALAR", "max" : [124], "min" : [0]}, {"bufferView" : 8, "byteOffset" : 0, "componentType" : 5126, "count" : 125, "type" : "VEC3", "max" : [11.40999984741211, 10, 16.386999130249023], "min" : [-11.95300006866455, 10, 6.789999961853027], "name" : "POSITION"}, {"bufferView" : 8, "byteOffset" : 12, "componentType" : 5126, "count" : 125, "type" : "VEC3", "max" : [0, 1.0000044107437134, 0], "min" : [0, 1.0000044107437134, 0], "name" : "NORMAL"}, {"bufferView" : 0, "byteOffset" : 33868, "componentType" : 5123, "count" : 2004, "type" : "SCALAR", "max" : [1949], "min" : [0]}, {"bufferView" : 9, "byteOffset" : 0, "componentType" : 5126, "count" : 1950, "type" : "VEC3", "max" : [18, 10, 21.00019073486328], "min" : [-18, -10, -11], "name" : "POSITION"}, {"bufferView" : 9, "byteOffset" : 12, "componentType" : 5126, "count" : 1950, "type" : "VEC3", "max" : [1.0000044107437134, 1.0000044107437134, 1.0000044107437134], "min" : [-1.0000044107437134, -1.0000044107437134, -1.0000044107437134], "name" : "NORMAL"}, {"bufferView" : 0, "byteOffset" : 37876, "componentType" : 5123, "count" : 1818, "type" : "SCALAR", "max" : [1701], "min" : [0]}, {"bufferView" : 10, "byteOffset" : 0, "componentType" : 5126, "count" : 1702, "type" : "VEC3", "max" : [-1.5, 11, 28], "min" : [-19.5, -9, -9], "name" : "POSITION"}, {"bufferView" : 10, "byteOffset" : 12, "componentType" : 5126, "count" : 1702, "type" : "VEC3", "max" : [1.0000044107437134, 1.0000044107437134, 1.0000044107437134], "min" : [-1.0000044107437134, -1.0000044107437134, -1.0000044107437134], "name" : "NORMAL"}, {"bufferView" : 0, "byteOffset" : 41512, "componentType" : 5123, "count" : 1818, "type" : "SCALAR", "max" : [1718], "min" : [0]}, {"bufferView" : 11, "byteOffset" : 0, "componentType" : 5126, "count" : 1719, "type" : "VEC3", "max" : [19.5, 11, 28], "min" : [1.5, -9, -9], "name" : "POSITION"}, {"bufferView" : 11, "byteOffset" : 12, "componentType" : 5126, "count" : 1719, "type" : "VEC3", "max" : [1.0000044107437134, 1.0000044107437134, 1.0000044107437134], "min" : [-1.0000044107437134, -1.0000044107437134, -1.0000044107437134], "name" : "NORMAL"}, {"bufferView" : 0, "byteOffset" : 45148, "componentType" : 5123, "count" : 3504, "type" : "SCALAR", "max" : [3225], "min" : [0]}, {"bufferView" : 12, "byteOffset" : 0, "componentType" : 5126, "count" : 3226, "type" : "VEC3", "max" : [10, 13.435999870300293, 22.43600082397461], "min" : [-7, -6.506999969482422, -6.5], "name" : "POSITION"}, {"bufferView" : 12, "byteOffset" : 12, "componentType" : 5126, "count" : 3226, "type" : "VEC3", "max" : [0.9997808933258057, 1.0000042915344238, 0.9997631907463074], "min" : [-1.0000044107437134, -1.0000044107437134, -0.9997631907463074], "name" : "NORMAL"}, {"bufferView" : 0, "byteOffset" : 52156, "componentType" : 5123, "count" : 3504, "type" : "SCALAR", "max" : [3263], "min" : [0]}, {"bufferView" : 13, "byteOffset" : 0, "componentType" : 5126, "count" : 3264, "type" : "VEC3", "max" : [7, 13.435999870300293, 22.43600082397461], "min" : [-10, -6.506999969482422, -6.5], "name" : "POSITION"}, {"bufferView" : 13, "byteOffset" : 12, "componentType" : 5126, "count" : 3264, "type" : "VEC3", "max" : [1.0000044107437134, 1.0000042915344238, 0.9997631907463074], "min" : [-0.9998757839202881, -1.0000044107437134, -0.9997631907463074], "name" : "NORMAL"}, {"bufferView" : 0, "byteOffset" : 59164, "componentType" : 5123, "count" : 1542, "type" : "SCALAR", "max" : [1462], "min" : [0]}, {"bufferView" : 14, "byteOffset" : 0, "componentType" : 5126, "count" : 1463, "type" : "VEC3", "max" : [6, 15.532299995422363, 4.612800121307373], "min" : [-6, -13, -7.650199890136719], "name" : "POSITION"}, {"bufferView" : 14, "byteOffset" : 12, "componentType" : 5126, "count" : 1463, "type" : "VEC3", "max" : [1.0000044107437134, 0.9983946084976196, 1.0000044107437134], "min" : [-1.0000044107437134, -1.0000044107437134, -0.9997631907463074], "name" : "NORMAL"}, {"bufferView" : 0, "byteOffset" : 62248, "componentType" : 5123, "count" : 18006, "type" : "SCALAR", "max" : [15662], "min" : [0]}, {"bufferView" : 15, "byteOffset" : 0, "componentType" : 5126, "count" : 15663, "type" : "VEC3", "max" : [14, 10, 25.5], "min" : [-14, -24, -10.5], "name" : "POSITION"}, {"bufferView" : 15, "byteOffset" : 12, "componentType" : 5126, "count" : 15663, "type" : "VEC3", "max" : [1.0000044107437134, 1.0000044107437134, 1.0000044107437134], "min" : [-1.0000044107437134, -1.0000044107437134, -1.0000044107437134], "name" : "NORMAL"}], "asset" : {"generator" : "Aspose.3D 23.9.0", "version" : "2.0"}, "buffers" : [{"uri" : "data:application/octet-stream;base64,", "byteLength" : 1277396}], "bufferViews" : [{"buffer" : 0, "byteOffset" : 0, "byteLength" : 98260, "target" : 34963}, {"buffer" : 0, "byteOffset" : 98264, "byteLength" : 241776, "byteStride" : 24, "target" : 34962}, {"buffer" : 0, "byteOffset" : 340044, "byteLength" : 7632, "byteStride" : 24, "target" : 34962}, {"buffer" : 0, "byteOffset" : 347680, "byteLength" : 91008, "byteStride" : 24, "target" : 34962}, {"buffer" : 0, "byteOffset" : 438692, "byteLength" : 49248, "byteStride" : 24, "target" : 34962}, {"buffer" : 0, "byteOffset" : 487944, "byteLength" : 1728, "byteStride" : 24, "target" : 34962}, {"buffer" : 0, "byteOffset" : 489676, "byteLength" : 10584, "byteStride" : 24, "target" : 34962}, {"buffer" : 0, "byteOffset" : 500264, "byteLength" : 1296, "byteStride" : 24, "target" : 34962}, {"buffer" : 0, "byteOffset" : 501564, "byteLength" : 3096, "byteStride" : 24, "target" : 34962}, {"buffer" : 0, "byteOffset" : 504664, "byteLength" : 48096, "byteStride" : 24, "target" : 34962}, {"buffer" : 0, "byteOffset" : 552764, "byteLength" : 43632, "byteStride" : 24, "target" : 34962}, {"buffer" : 0, "byteOffset" : 596400, "byteLength" : 43632, "byteStride" : 24, "target" : 34962}, {"buffer" : 0, "byteOffset" : 640036, "byteLength" : 84096, "byteStride" : 24, "target" : 34962}, {"buffer" : 0, "byteOffset" : 724136, "byteLength" : 84096, "byteStride" : 24, "target" : 34962}, {"buffer" : 0, "byteOffset" : 808236, "byteLength" : 37008, "byteStride" : 24, "target" : 34962}, {"buffer" : 0, "byteOffset" : 845248, "byteLength" : 432144, "byteStride" : 24, "target" : 34962}], "cameras" : [{"perspective" : {"aspectRatio" : 1.333333, "yfov" : 0.3475327531839141, "zfar" : 50000, "znear" : 20}, "type" : "perspective"}], "materials" : [{"name" : "SOLID-YELLOW", "pbrMetallicRoughness" : {"baseColorFactor" : [0.945098, 0.8, 0.2117647, 1], "metallicFactor" : 0, "roughnessFactor" : 0}, "emissiveFactor" : [0, 0, 0], "alphaMode" : "OPAQUE", "doubleSided" : false}, {"name" : "SOLID-BLACK", "pbrMetallicRoughness" : {"baseColorFactor" : [0.01568628, 0.07058824, 0.1098039, 1], "metallicFactor" : 0, "roughnessFactor" : 0}, "emissiveFactor" : [0, 0, 0], "alphaMode" : "OPAQUE", "doubleSided" : false}, {"name" : "SOLID-BLUE", "pbrMetallicRoughness" : {"baseColorFactor" : [0, 0.3294118, 0.7450981, 1], "metallicFactor" : 0, "roughnessFactor" : 0}, "emissiveFactor" : [0, 0, 0], "alphaMode" : "OPAQUE", "doubleSided" : false}, {"name" : "SOLID-BLUE", "pbrMetallicRoughness" : {"baseColorFactor" : [0, 0.3294118, 0.7450981, 1], "metallicFactor" : 0, "roughnessFactor" : 0}, "emissiveFactor" : [0, 0, 0], "alphaMode" : "OPAQUE", "doubleSided" : false}, {"name" : "SOLID-BLACK", "pbrMetallicRoughness" : {"baseColorFactor" : [0.01568628, 0.07058824, 0.1098039, 1], "metallicFactor" : 0, "roughnessFactor" : 0}, "emissiveFactor" : [0, 0, 0], "alphaMode" : "OPAQUE", "doubleSided" : false}, {"name" : "SOLID-WHITE", "pbrMetallicRoughness" : {"baseColorFactor" : [0.9960784, 0.9960784, 0.9960784, 1], "metallicFactor" : 0, "roughnessFactor" : 0}, "emissiveFactor" : [0, 0, 0], "alphaMode" : "OPAQUE", "doubleSided" : false}, {"name" : "METAL-GOLD", "pbrMetallicRoughness" : {"baseColorFactor" : [0.854902, 0.6705883, 0.2, 1], "metallicFactor" : 0, "roughnessFactor" : 0}, "emissiveFactor" : [0, 0, 0], "alphaMode" : "OPAQUE", "doubleSided" : false}, {"name" : "SOLID-RED", "pbrMetallicRoughness" : {"baseColorFactor" : [0.7843137, 0.09803922, 0.03137255, 1], "metallicFactor" : 0, "roughnessFactor" : 0}, "emissiveFactor" : [0, 0, 0], "alphaMode" : "OPAQUE", "doubleSided" : false}, {"name" : "SOLID-BLUE", "pbrMetallicRoughness" : {"baseColorFactor" : [0, 0.3294118, 0.7450981, 1], "metallicFactor" : 0, "roughnessFactor" : 0}, "emissiveFactor" : [0, 0, 0], "alphaMode" : "OPAQUE", "doubleSided" : false}, {"name" : "SOLID-BLUE", "pbrMetallicRoughness" : {"baseColorFactor" : [0, 0.3294118, 0.7450981, 1], "metallicFactor" : 0, "roughnessFactor" : 0}, "emissiveFactor" : [0, 0, 0], "alphaMode" : "OPAQUE", "doubleSided" : false}, {"name" : "SOLID-BLUE", "pbrMetallicRoughness" : {"baseColorFactor" : [0, 0.3294118, 0.7450981, 1], "metallicFactor" : 0, "roughnessFactor" : 0}, "emissiveFactor" : [0, 0, 0], "alphaMode" : "OPAQUE", "doubleSided" : false}, {"name" : "SOLID-BLUE", "pbrMetallicRoughness" : {"baseColorFactor" : [0, 0.3294118, 0.7450981, 1], "metallicFactor" : 0, "roughnessFactor" : 0}, "emissiveFactor" : [0, 0, 0], "alphaMode" : "OPAQUE", "doubleSided" : false}, {"name" : "SOLID-BLUE", "pbrMetallicRoughness" : {"baseColorFactor" : [0, 0.3294118, 0.7450981, 1], "metallicFactor" : 0, "roughnessFactor" : 0}, "emissiveFactor" : [0, 0, 0], "alphaMode" : "OPAQUE", "doubleSided" : false}, {"name" : "SOLID-YELLOW", "pbrMetallicRoughness" : {"baseColorFactor" : [0.945098, 0.8, 0.2117647, 1], "metallicFactor" : 0, "roughnessFactor" : 0}, "emissiveFactor" : [0, 0, 0], "alphaMode" : "OPAQUE", "doubleSided" : false}, {"name" : "SOLID-BLUE", "pbrMetallicRoughness" : {"baseColorFactor" : [0, 0.3294118, 0.7450981, 1], "metallicFactor" : 0, "roughnessFactor" : 0}, "emissiveFactor" : [0, 0, 0], "alphaMode" : "OPAQUE", "doubleSided" : false}], "meshes" : [{"primitives" : [{"attributes" : {"POSITION" : 1, "NORMAL" : 2}, "indices" : 0, "material" : 0, "mode" : 4}, {"attributes" : {"POSITION" : 4, "NORMAL" : 5}, "indices" : 3, "material" : 1, "mode" : 4}], "name" : ""}, {"primitives" : [{"attributes" : {"POSITION" : 7, "NORMAL" : 8}, "indices" : 6, "material" : 2, "mode" : 4}], "name" : ""}, {"primitives" : [{"attributes" : {"POSITION" : 10, "NORMAL" : 11}, "indices" : 9, "material" : 3, "mode" : 4}, {"attributes" : {"POSITION" : 13, "NORMAL" : 14}, "indices" : 12, "material" : 4, "mode" : 4}, {"attributes" : {"POSITION" : 16, "NORMAL" : 17}, "indices" : 15, "material" : 5, "mode" : 4}, {"attributes" : {"POSITION" : 19, "NORMAL" : 20}, "indices" : 18, "material" : 6, "mode" : 4}, {"attributes" : {"POSITION" : 22, "NORMAL" : 23}, "indices" : 21, "material" : 7, "mode" : 4}], "name" : ""}, {"primitives" : [{"attributes" : {"POSITION" : 25, "NORMAL" : 26}, "indices" : 24, "material" : 8, "mode" : 4}], "name" : ""}, {"primitives" : [{"attributes" : {"POSITION" : 28, "NORMAL" : 29}, "indices" : 27, "material" : 9, "mode" : 4}], "name" : ""}, {"primitives" : [{"attributes" : {"POSITION" : 31, "NORMAL" : 32}, "indices" : 30, "material" : 10, "mode" : 4}], "name" : ""}, {"primitives" : [{"attributes" : {"POSITION" : 34, "NORMAL" : 35}, "indices" : 33, "material" : 11, "mode" : 4}], "name" : ""}, {"primitives" : [{"attributes" : {"POSITION" : 37, "NORMAL" : 38}, "indices" : 36, "material" : 12, "mode" : 4}], "name" : ""}, {"primitives" : [{"attributes" : {"POSITION" : 40, "NORMAL" : 41}, "indices" : 39, "material" : 13, "mode" : 4}], "name" : ""}, {"primitives" : [{"attributes" : {"POSITION" : 43, "NORMAL" : 44}, "indices" : 42, "material" : 14, "mode" : 4}], "name" : ""}], "nodes" : [{"matrix" : [0.990384996, 0, 0, 0, 0, 0.991070986, 0, 0, 0, 0, 0.990384996, 0, -80, 70, -55.9107132, 1], "mesh" : 0}, {"children" : [0], "name" : "3626bp01_dot_dat"}, {"matrix" : [0.991379023, 0, 0, 0, 0, 0.992136002, 0, 0, 0, 0, 0.99209398, 0, -80, 70.0103607, -55.9354248, 1], "mesh" : 1}, {"children" : [2], "name" : "16599_dot_dat"}, {"matrix" : [0.993421018, 0, 0, 0, 0, 0.994318008, 0, 0, 0, 0, 0.987500012, 0, -80, 70, -31.943182, 1], "mesh" : 2}, {"children" : [4], "name" : "973p90_dot_dat"}, {"mesh" : 3}, {"children" : [6], "name" : "3815_dot_dat"}, {"matrix" : [1, 0, 0, 0, 0, 1, 0, 0, 0, 0, 1, 0, 0, 0, 12, 1], "mesh" : 4}, {"children" : [8], "name" : "3816_dot_dat"}, {"matrix" : [1, 0, 0, 0, 0, 1, 0, 0, 0, 0, 1, 0, 0, 0, 12, 1], "mesh" : 5}, {"children" : [10], "name" : "3817_dot_dat"}, {"children" : [7, 9, 11], "name" : "3815c01_dot_dat"}, {"children" : [12], "matrix" : [1, 0, 0, 0, 0, 1, 0, 0, 0, 0, 1, 0, -80, 70, 0, 1], "name" : "3815c01_dot_dat"}, {"matrix" : [0.97083807, 0, -0.168160871, 0, 0, 0.991360068, 0, 0, 0.168531209, 0, 0.972976089, 0, -64.4947205, 70.0434265, -23.0602551, 1], "mesh" : 6}, {"children" : [14], "name" : "3819_dot_dat"}, {"matrix" : [0.971003056, 0, 0.167207807, 0, 0, 0.991360426, 0, 0, -0.167575985, 0, 0.973141074, 0, -95.6080399, 70.0434265, -23.0287323, 1], "mesh" : 7}, {"children" : [16], "name" : "3818_dot_dat"}, {"matrix" : [0.970906913, 0.117498226, 0.0479633845, 0, -0.117551804, 0.692690849, 0.682644069, 0, 0.0485548191, -0.690744996, 0.709272206, 0, -103.729301, 79.5294189, -5.23136187, 1], "mesh" : 8}, {"children" : [18], "name" : "3820_dot_dat"}, {"matrix" : [0.970812976, -0.118168145, -0.0482286885, 0, 0.118222043, 0.692691386, 0.682528079, 0, -0.0488232374, -0.690627038, 0.709367692, 0, -56.3559608, 80.0294189, -5.27087021, 1], "mesh" : 8}, {"children" : [20], "name" : "3820_dot_dat"}, {"matrix" : [0.991070986, 0, 0, 0, 0, 0.993055999, 0, 0, 0, 0, 0.992646992, 0, -80, 69.9485321, -31.9479179, 1], "mesh" : 9}, {"children" : [22], "name" : "3838_dot_dat"}, {"children" : [1, 3, 5, 13, 15, 17, 19, 21, 23], "name" : "UntitledModel_dot_io"}, {"children" : [24], "matrix" : [1, 0, 0, 0, 0, -1, 0, 0, 0, 0, 1, 0, 0, 0, 0, 1], "name" : "Model"}, {"camera" : 0, "matrix" : [0.987688422, 3.61353159E-07, 0.156434581, 0, 0.0433997288, 0.960745215, -0.274017185, 0, -0.150293842, 0.27743277, 0.948916674, 0, -120.33474, 222.347229, 760.523621, 1], "name" : "Camera_Node"}], "scene" : 0, "scenes" : [{"nodes" : [25, 26]}]}